<svg width="65" height="65" viewBox="0 0 65 65" fill="none" xmlns="http://www.w3.org/2000/svg">
<path d="M10.4713 45.6683H26.4713C29.2997 45.6683 30.714 45.6683 31.5926 46.5469C32.4713 47.4256 32.4713 48.8398 32.4713 51.6683V17.0016C32.4713 14.1732 32.4713 12.7589 31.5926 11.8803C30.714 11.0016 29.2997 11.0016 26.4713 11.0016H10.4713C9.5285 11.0016 9.0571 11.0016 8.76421 11.2945C8.47131 11.5874 8.47131 12.0588 8.47131 13.0016V43.6683C8.47131 44.6111 8.47131 45.0825 8.76421 45.3754C9.0571 45.6683 9.5285 45.6683 10.4713 45.6683Z" fill="#7E869E" fill-opacity="0.25"/>
<path d="M54.4713 45.6683H41.138C38.3096 45.6683 36.8953 45.6683 36.0167 46.5469C35.138 47.4256 35.138 48.8398 35.138 51.6683V17.0016C35.138 14.1732 35.138 12.7589 36.0167 11.8803C36.8953 11.0016 38.3096 11.0016 41.138 11.0016H54.4713C55.4141 11.0016 55.8855 11.0016 56.1784 11.2945C56.4713 11.5874 56.4713 12.0588 56.4713 13.0016V43.6683C56.4713 44.6111 56.4713 45.0825 56.1784 45.3754C55.8855 45.6683 55.4141 45.6683 54.4713 45.6683Z" fill="url(#paint0_linear_23_1596)"/>
<path d="M13.8046 11.1516C13.8046 11.0687 13.8718 11.0016 13.9546 11.0016H21.6546C21.7375 11.0016 21.8046 11.0687 21.8046 11.1516V23.7314C21.8046 23.9541 21.5354 24.0656 21.3779 23.9081L17.9814 20.5117C17.8838 20.4141 17.7255 20.4141 17.6279 20.5117L14.2314 23.9081C14.0739 24.0656 13.8046 23.9541 13.8046 23.7314V11.1516Z" fill="url(#paint1_linear_23_1596)"/>
<defs>
<linearGradient id="paint0_linear_23_1596" x1="45.8047" y1="11.0016" x2="45.8047" y2="53.6683" gradientUnits="userSpaceOnUse">
<stop stop-color="#1997B3"/>
<stop offset="1" stop-color="#37CCA0"/>
</linearGradient>
<linearGradient id="paint1_linear_23_1596" x1="17.8046" y1="11.0016" x2="17.8046" y2="24.3349" gradientUnits="userSpaceOnUse">
<stop stop-color="#1997B3"/>
<stop offset="1" stop-color="#37CCA0"/>
</linearGradient>
</defs>
</svg>
